# xmcd
#
# Track frame offsets: 
#        150
#        20794
#        48787
#        65113
#        81973
#        103218
#        121286
#        135010
#        153045
#        169196
#        187422
#
# Disc length: 2716 seconds
#
# Revision: 4
# Processed by: cddbd v1.5.2PL0 Copyright (c) Steve Scherf et al.
# Submitted via: ExactAudioCopy v0.99pb5
#
DISCID=930a9a0b
DTITLE=Various Artist - The Big Issue:11 tracks, 11 years
DYEAR=2002
DGENRE=Rock
TTITLE0=Coldplay - One I love
TTITLE1=Alabama - Lord Have Mercy
TTITLE2=Radiohead - The amzing sound of Orgy
TTITLE3=Supergrass - la song
TTITLE4=Ian Brown - Shadow of a Saint
TTITLE5=Black Rebel Motorcycle Club - Red Eyes and Tears
TTITLE6=Roddy Frame - Over You
TTITLE7=Oasis - (probably) all in the mind
TTITLE8=The Charlatans - you're so pretty - we're so pretty
TTITLE9=Robert Plant - One more cup of coffee
TTITLE10=Primal Scream - Higher than the sun
EXTD=
EXTT0=Coldplay
EXTT1=Alabama 3
EXTT2=Radiohead
EXTT3=Supergrass
EXTT4=Ian Brown
EXTT5=Black Rebel Motorcycle Club
EXTT6=Roddy Frame
EXTT7=Oasis
EXTT8=The Charlatans
EXTT9=Robert Plant
EXTT10=Primal Scream
PLAYORDER=
